<?xml version="1.0" standalone="no"?>
<!DOCTYPE svg PUBLIC "-//W3C//DTD SVG 20010904//EN"
 "http://www.w3.org/TR/2001/REC-SVG-20010904/DTD/svg10.dtd">
<svg version="1.0" xmlns="http://www.w3.org/2000/svg"
 width="1000" height="255" viewBox="-25 -30 1035 255"
 preserveAspectRatio="xMidYMid meet">

<!-- Icon -->
<svg x="10" y="0" width="200" height="200" viewBox="126.5 71.5 246 246" preserveAspectRatio="xMidYMid meet">
  <g transform="translate(0.000000,310.000000) scale(0.100000,-0.100000)"
  fill="#000000" stroke="none">
  <path d="M2093 1780 l-393 -230 -165 0 -165 0 0 -125 c0 -69 2 -125 4 -125 3
0 74 40 158 90 l153 89 3 -594 2 -595 25 0 25 0 2 612 3 613 370 216 c204 120
376 218 383 218 12 1 657 -371 677 -390 5 -5 -218 -9 -563 -9 l-572 0 0 -630
0 -630 150 0 150 0 0 260 0 260 160 0 160 0 0 -260 0 -260 330 0 330 0 0 510
0 510 -30 0 -30 0 0 -485 0 -485 -275 0 -275 0 0 260 0 260 -210 0 -210 0 0
-260 0 -260 -100 0 -100 0 0 580 0 580 595 0 596 0 170 -100 c94 -55 173 -100
175 -100 2 0 4 56 4 125 l0 125 -164 0 -165 0 -394 230 c-217 127 -400 230
-408 230 -8 -1 -191 -104 -406 -230z m-548 -321 c-39 -22 -82 -47 -97 -55
l-28 -15 0 56 0 55 97 0 98 0 -70 -41z m2035 -15 l0 -55 -52 29 c-29 17 -73
42 -98 56 l-45 26 98 0 97 0 0 -56z"/>
  </g>
</svg>

<!-- Text -->
<text x="240" y="130" font-family="Arial, Helvetica, sans-serif" font-size="72" font-weight="400" letter-spacing="12" fill="#000000">NOYES ESTATES</text>
</svg>
